<!-- Generator: Adobe Illustrator 24.2.3, SVG Export Plug-In  -->
<svg version="1.1" xmlns="http://www.w3.org/2000/svg" xmlns:xlink="http://www.w3.org/1999/xlink" x="0px" y="0px"
	 width="222.05px" height="46.86px" viewBox="0 0 222.05 46.86" style="overflow:visible;enable-background:new 0 0 222.05 46.86;"
	 xml:space="preserve">
<style type="text/css">
	.st0{fill:#FF5400;}
</style>
<defs>
</defs>
<g>
	<path d="M59.32,32.64V6.44h4.75v22.3h12.25v3.9H59.32z"/>
	<path d="M94.5,14.05v18.58h-4.53v-2.98c-0.56,1.03-1.37,1.83-2.43,2.41c-1.06,0.58-2.26,0.86-3.61,0.86
		c-1.62,0-3.05-0.39-4.31-1.18c-1.25-0.78-2.22-1.9-2.91-3.35c-0.69-1.45-1.03-3.13-1.03-5.04s0.35-3.61,1.05-5.1
		s1.67-2.64,2.93-3.46c1.25-0.82,2.67-1.23,4.27-1.23c1.35,0,2.55,0.29,3.61,0.86c1.05,0.58,1.86,1.38,2.43,2.41v-2.8H94.5z
		 M88.73,27.74c0.83-1.05,1.25-2.54,1.25-4.45c0-1.96-0.42-3.47-1.25-4.53c-0.83-1.05-2.02-1.58-3.57-1.58
		c-1.52,0-2.7,0.55-3.55,1.64c-0.85,1.09-1.27,2.61-1.27,4.54c0,1.91,0.42,3.39,1.27,4.42c0.85,1.03,2.04,1.55,3.59,1.55
		C86.71,29.33,87.89,28.8,88.73,27.74z"/>
	<path d="M114.71,14.05v18c0,2.9-0.8,5.09-2.39,6.59c-1.59,1.5-3.94,2.24-7.03,2.24c-2.87,0-5.4-0.6-7.58-1.8l0.74-3.5
		c2.26,1.18,4.5,1.77,6.73,1.77c3.31,0,4.97-1.64,4.97-4.93v-3.68c-0.57,1.01-1.39,1.82-2.47,2.45s-2.29,0.94-3.64,0.94
		c-1.62,0-3.06-0.39-4.32-1.16c-1.26-0.77-2.24-1.86-2.94-3.28c-0.7-1.41-1.05-3.02-1.05-4.84c0-1.82,0.35-3.43,1.05-4.84
		c0.7-1.41,1.68-2.5,2.94-3.28c1.26-0.77,2.71-1.16,4.32-1.16c1.37,0,2.59,0.29,3.66,0.86c1.07,0.58,1.88,1.38,2.45,2.41v-2.8
		H114.71z M108.84,27.01c0.87-1.01,1.31-2.39,1.31-4.16s-0.43-3.15-1.29-4.16c-0.86-1.01-2.06-1.51-3.61-1.51
		c-1.52,0-2.72,0.5-3.59,1.51c-0.87,1.01-1.31,2.39-1.31,4.16s0.44,3.15,1.31,4.16c0.87,1.01,2.07,1.51,3.59,1.51
		C106.77,28.52,107.97,28.02,108.84,27.01z"/>
	<path d="M133.18,23.59h-12.81c0.1,1.99,0.59,3.45,1.49,4.4c0.9,0.94,2.23,1.42,3.99,1.42c2.04,0,3.92-0.66,5.67-1.99l1.33,3.16
		c-0.88,0.71-1.97,1.28-3.26,1.71c-1.29,0.43-2.59,0.64-3.92,0.64c-3.04,0-5.43-0.86-7.18-2.58c-1.74-1.72-2.61-4.07-2.61-7.07
		c0-1.89,0.38-3.57,1.14-5.04c0.76-1.47,1.83-2.62,3.2-3.44c1.37-0.82,2.93-1.23,4.67-1.23c2.55,0,4.57,0.83,6.05,2.48
		c1.48,1.66,2.23,3.93,2.23,6.83V23.59z M122.01,17.97c-0.77,0.72-1.27,1.77-1.49,3.15h8.65c-0.15-1.4-0.57-2.45-1.27-3.17
		c-0.7-0.71-1.66-1.07-2.89-1.07S122.78,17.25,122.01,17.97z"/>
	<path d="M146.17,13.91l-0.04,4.2c-0.79-0.32-1.59-0.48-2.43-0.48c-1.57,0-2.77,0.45-3.59,1.36c-0.82,0.91-1.23,2.11-1.23,3.61
		v10.05h-4.56V19.32c0-1.96-0.1-3.72-0.29-5.26h4.31l0.37,3.28c0.47-1.2,1.2-2.12,2.21-2.76c1.01-0.64,2.15-0.96,3.42-0.96
		C145.04,13.61,145.65,13.71,146.17,13.91z"/>
	<path d="M165.86,6.44h2.28v26.2h-2.28V20.35h-16.71v12.29h-2.28V6.44h2.28v11.89h16.71V6.44z"/>
	<path d="M187.46,14.2v18.44h-2.25v-3.53c-0.54,1.23-1.36,2.17-2.45,2.81c-1.09,0.65-2.4,0.98-3.92,0.98
		c-1.64,0-3.08-0.39-4.32-1.16c-1.24-0.77-2.2-1.88-2.87-3.31c-0.67-1.44-1.01-3.11-1.01-5.02c0-1.91,0.34-3.6,1.03-5.06
		c0.69-1.46,1.65-2.59,2.89-3.39s2.67-1.2,4.29-1.2c1.5,0,2.79,0.32,3.88,0.96c1.09,0.64,1.92,1.57,2.48,2.8V14.2H187.46z
		 M183.63,28.92c1.05-1.32,1.58-3.19,1.58-5.59c0-2.43-0.53-4.31-1.58-5.63c-1.05-1.32-2.55-1.99-4.49-1.99
		c-1.94,0-3.45,0.68-4.53,2.04C173.54,19.11,173,21,173,23.4c0,2.38,0.54,4.23,1.62,5.54c1.08,1.31,2.6,1.97,4.56,1.97
		C181.09,30.91,182.58,30.25,183.63,28.92z"/>
	<path d="M205.64,14.2v18.44h-2.17v-3.35c-0.59,1.18-1.42,2.07-2.5,2.69c-1.08,0.61-2.32,0.92-3.72,0.92c-2.16,0-3.79-0.6-4.89-1.8
		c-1.1-1.2-1.66-2.98-1.66-5.34V14.2h2.21v11.41c0,1.82,0.37,3.15,1.1,4.01c0.74,0.86,1.88,1.29,3.42,1.29
		c1.82,0,3.26-0.57,4.34-1.71c1.08-1.14,1.62-2.66,1.62-4.54V14.2H205.64z"/>
	<path d="M207.88,30.43l0.81-1.73c0.98,0.81,1.97,1.39,2.96,1.73c0.99,0.34,2.14,0.52,3.44,0.52c1.52,0,2.68-0.26,3.48-0.79
		c0.8-0.53,1.2-1.29,1.2-2.3c0-0.83-0.26-1.49-0.79-1.97c-0.53-0.48-1.39-0.86-2.59-1.16l-3.13-0.7c-1.47-0.34-2.63-0.96-3.48-1.84
		c-0.85-0.88-1.27-1.91-1.27-3.09c0-1.62,0.62-2.91,1.86-3.88c1.24-0.97,2.89-1.45,4.95-1.45c1.3,0,2.51,0.21,3.62,0.63
		c1.12,0.42,2.04,1.02,2.78,1.8l-0.85,1.73c-1.69-1.47-3.55-2.21-5.56-2.21c-1.42,0-2.53,0.28-3.31,0.85
		c-0.79,0.56-1.18,1.35-1.18,2.36c0,0.83,0.25,1.51,0.75,2.02c0.5,0.52,1.28,0.9,2.34,1.14l3.17,0.77c3.31,0.74,4.97,2.37,4.97,4.89
		c0,1.55-0.64,2.79-1.91,3.74c-1.28,0.94-2.99,1.42-5.15,1.42C211.99,32.9,209.63,32.08,207.88,30.43z"/>
</g>
<rect class="st0" width="46.86" height="46.86"/>
<g>
	<path d="M128.3,37.96h2.01c0.52,0,0.93,0.13,1.23,0.38s0.45,0.6,0.45,1.05c0,0.45-0.15,0.8-0.45,1.06
		c-0.3,0.26-0.71,0.38-1.23,0.38h-1.55v2.34h-0.45V37.96z M130.28,40.43c0.41,0,0.72-0.09,0.93-0.27s0.32-0.44,0.32-0.78
		c0-0.33-0.11-0.59-0.32-0.77s-0.52-0.27-0.93-0.27h-1.52v2.09H130.28z"/>
	<path d="M132.86,42.99c-0.26-0.16-0.45-0.38-0.59-0.67c-0.14-0.29-0.21-0.62-0.21-1s0.07-0.72,0.21-1
		c0.14-0.29,0.34-0.51,0.59-0.67c0.26-0.16,0.55-0.23,0.89-0.23c0.33,0,0.62,0.08,0.88,0.23s0.45,0.38,0.59,0.67
		c0.14,0.29,0.21,0.62,0.21,1s-0.07,0.71-0.21,1c-0.14,0.29-0.34,0.51-0.59,0.67s-0.55,0.23-0.88,0.23
		C133.42,43.22,133.12,43.15,132.86,42.99z M134.65,42.44c0.21-0.26,0.32-0.63,0.32-1.12c0-0.48-0.11-0.85-0.32-1.12
		c-0.21-0.27-0.51-0.4-0.89-0.4c-0.39,0-0.69,0.13-0.9,0.4c-0.21,0.27-0.32,0.64-0.32,1.12c0,0.49,0.11,0.86,0.32,1.12
		s0.51,0.39,0.9,0.39S134.44,42.7,134.65,42.44z"/>
	<path d="M140.84,39.5h0.45l-1.33,3.67h-0.46l-1.11-3.1l-1.12,3.1h-0.47l-1.33-3.67h0.48l1.08,3.13l1.14-3.13h0.45l1.11,3.13
		L140.84,39.5z"/>
	<path d="M141.8,41.28v0.02c0,0.49,0.11,0.87,0.34,1.13c0.23,0.26,0.56,0.39,0.99,0.39c0.44,0,0.84-0.15,1.21-0.45l0.18,0.35
		c-0.16,0.15-0.37,0.27-0.62,0.36c-0.25,0.09-0.51,0.13-0.77,0.13c-0.56,0-1-0.17-1.32-0.5s-0.48-0.8-0.48-1.39
		c0-0.38,0.07-0.71,0.22-1c0.14-0.29,0.34-0.51,0.6-0.67c0.26-0.16,0.56-0.24,0.89-0.24c0.48,0,0.86,0.16,1.13,0.47
		c0.27,0.31,0.41,0.75,0.41,1.3v0.09H141.8z M142.22,40.09c-0.21,0.2-0.34,0.49-0.4,0.85h2.33c-0.03-0.38-0.14-0.66-0.33-0.86
		c-0.19-0.2-0.45-0.3-0.78-0.3C142.7,39.78,142.43,39.88,142.22,40.09z"/>
	<path d="M146.89,39.45l-0.02,0.4c-0.09-0.02-0.21-0.03-0.34-0.03c-0.37,0-0.65,0.12-0.83,0.36c-0.18,0.24-0.28,0.52-0.28,0.85v2.15
		h-0.44v-2.65c0-0.38-0.02-0.72-0.06-1.02h0.42l0.06,0.68c0.09-0.25,0.24-0.44,0.45-0.57c0.21-0.13,0.44-0.2,0.71-0.2
		C146.69,39.42,146.8,39.43,146.89,39.45z"/>
	<path d="M147.16,41.28v0.02c0,0.49,0.11,0.87,0.34,1.13c0.23,0.26,0.56,0.39,0.99,0.39c0.44,0,0.84-0.15,1.21-0.45l0.18,0.35
		c-0.16,0.15-0.37,0.27-0.62,0.36c-0.25,0.09-0.51,0.13-0.77,0.13c-0.56,0-1-0.17-1.32-0.5s-0.48-0.8-0.48-1.39
		c0-0.38,0.07-0.71,0.22-1c0.14-0.29,0.34-0.51,0.6-0.67c0.26-0.16,0.56-0.24,0.89-0.24c0.48,0,0.86,0.16,1.13,0.47
		c0.27,0.31,0.41,0.75,0.41,1.3v0.09H147.16z M147.58,40.09c-0.21,0.2-0.34,0.49-0.4,0.85h2.33c-0.03-0.38-0.14-0.66-0.33-0.86
		c-0.19-0.2-0.45-0.3-0.78-0.3C148.06,39.78,147.79,39.88,147.58,40.09z"/>
	<path d="M153.46,37.78v5.39h-0.45v-0.7c-0.11,0.24-0.27,0.43-0.49,0.56c-0.22,0.13-0.48,0.19-0.78,0.19
		c-0.32,0-0.61-0.08-0.85-0.24c-0.25-0.16-0.44-0.38-0.58-0.67c-0.14-0.29-0.21-0.63-0.21-1.01s0.07-0.71,0.2-1
		c0.13-0.29,0.32-0.51,0.57-0.66c0.25-0.15,0.53-0.23,0.86-0.23c0.3,0,0.56,0.06,0.77,0.19c0.22,0.13,0.38,0.31,0.49,0.56v-2.38
		H153.46z M152.7,42.43c0.21-0.26,0.31-0.63,0.31-1.11s-0.1-0.85-0.31-1.12c-0.21-0.27-0.51-0.4-0.89-0.4
		c-0.39,0-0.69,0.13-0.91,0.4s-0.32,0.63-0.32,1.11c0,0.48,0.11,0.85,0.32,1.12s0.52,0.4,0.9,0.4S152.49,42.7,152.7,42.43z"/>
	<path d="M158.02,39.65c0.25,0.16,0.44,0.38,0.58,0.66c0.13,0.28,0.2,0.62,0.2,1s-0.07,0.72-0.21,1.01
		c-0.14,0.29-0.33,0.51-0.58,0.67c-0.25,0.16-0.53,0.24-0.85,0.24c-0.3,0-0.56-0.07-0.78-0.2c-0.22-0.13-0.38-0.32-0.49-0.57v0.72
		h-0.45v-5.39h0.44v2.41c0.11-0.25,0.27-0.45,0.49-0.58s0.48-0.2,0.78-0.2C157.48,39.42,157.77,39.49,158.02,39.65z M158,42.43
		c0.21-0.27,0.32-0.64,0.32-1.12c0-0.47-0.11-0.84-0.32-1.11s-0.52-0.4-0.9-0.4s-0.68,0.13-0.89,0.4s-0.31,0.64-0.31,1.12
		s0.1,0.86,0.31,1.12c0.21,0.26,0.51,0.39,0.9,0.39C157.49,42.83,157.79,42.69,158,42.43z"/>
	<path d="M162.3,39.5l-1.73,4.05c-0.17,0.4-0.38,0.69-0.64,0.88c-0.26,0.19-0.58,0.32-0.96,0.4l-0.09-0.35
		c0.35-0.08,0.62-0.19,0.79-0.32c0.18-0.13,0.33-0.34,0.45-0.62l0.15-0.36l-1.57-3.68h0.48l1.33,3.22l1.33-3.22H162.3z"/>
	<path d="M170.58,37.96h0.45l-1.82,5.21h-0.4l-1.57-4.49l-1.58,4.49h-0.39l-1.82-5.21h0.45l1.57,4.58l1.58-4.58l0.36,0.01l1.58,4.56
		L170.58,37.96z"/>
	<path d="M171.19,41.28v0.02c0,0.49,0.11,0.87,0.34,1.13c0.23,0.26,0.56,0.39,0.99,0.39c0.44,0,0.84-0.15,1.21-0.45l0.18,0.35
		c-0.16,0.15-0.37,0.27-0.62,0.36c-0.25,0.09-0.51,0.13-0.77,0.13c-0.56,0-1-0.17-1.32-0.5s-0.48-0.8-0.48-1.39
		c0-0.38,0.07-0.71,0.22-1c0.14-0.29,0.34-0.51,0.6-0.67c0.26-0.16,0.56-0.24,0.89-0.24c0.48,0,0.86,0.16,1.13,0.47
		c0.27,0.31,0.41,0.75,0.41,1.3v0.09H171.19z M171.61,40.09c-0.21,0.2-0.34,0.49-0.4,0.85h2.33c-0.03-0.38-0.14-0.66-0.33-0.86
		c-0.19-0.2-0.45-0.3-0.78-0.3C172.09,39.78,171.82,39.88,171.61,40.09z"/>
	<path d="M176.28,39.45l-0.02,0.4c-0.09-0.02-0.21-0.03-0.34-0.03c-0.37,0-0.65,0.12-0.83,0.36c-0.18,0.24-0.28,0.52-0.28,0.85v2.15
		h-0.44v-2.65c0-0.38-0.02-0.72-0.06-1.02h0.42l0.06,0.68c0.09-0.25,0.24-0.44,0.45-0.57c0.21-0.13,0.44-0.2,0.71-0.2
		C176.08,39.42,176.19,39.43,176.28,39.45z"/>
	<path d="M179.46,43.17h-0.61l-2.02-1.79v1.79h-0.44v-5.39h0.44v3.43l1.85-1.71h0.58l-1.92,1.76L179.46,43.17z"/>
	<path d="M182.52,40.84v2.34h-0.45v-2.31c0-0.37-0.07-0.63-0.22-0.81c-0.15-0.17-0.38-0.26-0.7-0.26c-0.37,0-0.66,0.11-0.89,0.34
		s-0.34,0.53-0.34,0.91v2.12h-0.44v-2.65c0-0.38-0.02-0.72-0.06-1.02h0.42l0.06,0.67c0.11-0.25,0.28-0.44,0.51-0.57
		c0.22-0.13,0.48-0.19,0.78-0.19C182.07,39.42,182.52,39.89,182.52,40.84z"/>
	<path d="M184.55,43.17v-5.21h3.21v0.39H185v1.98h2.62v0.4H185v2.06h2.77v0.39H184.55z"/>
	<path d="M188.16,41.4v-0.39h2.01v0.39H188.16z"/>
	<path d="M191.75,42.91c-0.36-0.21-0.63-0.52-0.82-0.92c-0.19-0.4-0.29-0.88-0.29-1.43c0-0.55,0.1-1.02,0.29-1.42
		s0.46-0.71,0.82-0.92c0.36-0.21,0.78-0.32,1.26-0.32c0.36,0,0.69,0.06,0.99,0.17c0.3,0.12,0.56,0.29,0.78,0.51l-0.19,0.36
		c-0.25-0.22-0.5-0.39-0.75-0.49c-0.25-0.1-0.53-0.15-0.83-0.15c-0.6,0-1.07,0.2-1.4,0.59c-0.33,0.39-0.5,0.95-0.5,1.67
		c0,0.72,0.17,1.28,0.5,1.68c0.33,0.4,0.8,0.59,1.4,0.59c0.31,0,0.59-0.05,0.83-0.15c0.25-0.1,0.5-0.26,0.75-0.49l0.19,0.36
		c-0.22,0.22-0.48,0.39-0.78,0.51c-0.3,0.11-0.63,0.17-0.99,0.17C192.53,43.23,192.11,43.12,191.75,42.91z"/>
	<path d="M195.73,42.99c-0.26-0.16-0.45-0.38-0.59-0.67c-0.14-0.29-0.21-0.62-0.21-1s0.07-0.72,0.21-1
		c0.14-0.29,0.34-0.51,0.59-0.67c0.26-0.16,0.55-0.23,0.89-0.23c0.33,0,0.62,0.08,0.88,0.23s0.45,0.38,0.59,0.67
		c0.14,0.29,0.21,0.62,0.21,1s-0.07,0.71-0.21,1c-0.14,0.29-0.34,0.51-0.59,0.67s-0.55,0.23-0.88,0.23
		C196.29,43.22,195.99,43.15,195.73,42.99z M197.52,42.44c0.21-0.26,0.32-0.63,0.32-1.12c0-0.48-0.11-0.85-0.32-1.12
		c-0.21-0.27-0.51-0.4-0.89-0.4c-0.39,0-0.69,0.13-0.9,0.4c-0.21,0.27-0.32,0.64-0.32,1.12c0,0.49,0.11,0.86,0.32,1.12
		s0.51,0.39,0.9,0.39S197.31,42.7,197.52,42.44z"/>
	<path d="M203.9,40.84v2.34h-0.45v-2.31c0-0.37-0.07-0.64-0.2-0.81c-0.13-0.17-0.34-0.25-0.63-0.25c-0.34,0-0.6,0.11-0.79,0.34
		c-0.19,0.22-0.29,0.53-0.29,0.92v2.12h-0.45v-2.31c0-0.37-0.07-0.64-0.2-0.81c-0.13-0.17-0.35-0.25-0.63-0.25
		c-0.33,0-0.6,0.11-0.79,0.34c-0.2,0.22-0.3,0.53-0.3,0.92v2.12h-0.44v-2.65c0-0.38-0.02-0.72-0.06-1.02h0.42l0.06,0.66
		c0.1-0.24,0.26-0.43,0.46-0.56c0.2-0.13,0.44-0.19,0.71-0.19c0.59,0,0.97,0.24,1.13,0.72c0.1-0.22,0.26-0.4,0.48-0.53
		c0.22-0.13,0.47-0.19,0.75-0.19C203.5,39.42,203.9,39.89,203.9,40.84z"/>
	<path d="M209.72,40.84v2.34h-0.45v-2.31c0-0.37-0.07-0.64-0.2-0.81c-0.13-0.17-0.34-0.25-0.63-0.25c-0.34,0-0.6,0.11-0.79,0.34
		c-0.19,0.22-0.29,0.53-0.29,0.92v2.12h-0.45v-2.31c0-0.37-0.07-0.64-0.2-0.81c-0.13-0.17-0.35-0.25-0.63-0.25
		c-0.33,0-0.6,0.11-0.79,0.34c-0.2,0.22-0.3,0.53-0.3,0.92v2.12h-0.44v-2.65c0-0.38-0.02-0.72-0.06-1.02h0.42l0.06,0.66
		c0.1-0.24,0.26-0.43,0.46-0.56c0.2-0.13,0.44-0.19,0.71-0.19c0.59,0,0.97,0.24,1.13,0.72c0.1-0.22,0.26-0.4,0.48-0.53
		c0.22-0.13,0.47-0.19,0.75-0.19C209.31,39.42,209.72,39.89,209.72,40.84z"/>
	<path d="M210.6,41.28v0.02c0,0.49,0.11,0.87,0.34,1.13c0.23,0.26,0.56,0.39,0.99,0.39c0.44,0,0.84-0.15,1.21-0.45l0.18,0.35
		c-0.16,0.15-0.37,0.27-0.62,0.36c-0.25,0.09-0.51,0.13-0.77,0.13c-0.56,0-1-0.17-1.32-0.5s-0.48-0.8-0.48-1.39
		c0-0.38,0.07-0.71,0.22-1c0.14-0.29,0.34-0.51,0.6-0.67c0.26-0.16,0.56-0.24,0.89-0.24c0.48,0,0.86,0.16,1.13,0.47
		c0.27,0.31,0.41,0.75,0.41,1.3v0.09H210.6z M211.02,40.09c-0.21,0.2-0.34,0.49-0.4,0.85h2.33c-0.03-0.38-0.14-0.66-0.33-0.86
		c-0.19-0.2-0.45-0.3-0.78-0.3C211.5,39.78,211.23,39.88,211.02,40.09z"/>
	<path d="M215.69,39.45l-0.02,0.4c-0.09-0.02-0.21-0.03-0.34-0.03c-0.37,0-0.65,0.12-0.83,0.36c-0.18,0.24-0.28,0.52-0.28,0.85v2.15
		h-0.44v-2.65c0-0.38-0.02-0.72-0.06-1.02h0.42l0.06,0.68c0.09-0.25,0.24-0.44,0.45-0.57c0.21-0.13,0.44-0.2,0.71-0.2
		C215.49,39.42,215.6,39.43,215.69,39.45z"/>
	<path d="M216.3,42.99c-0.26-0.16-0.46-0.38-0.6-0.66c-0.14-0.29-0.21-0.62-0.21-0.99c0-0.38,0.07-0.72,0.21-1.01
		c0.14-0.29,0.34-0.51,0.61-0.67c0.26-0.16,0.57-0.24,0.92-0.24c0.25,0,0.49,0.04,0.71,0.13c0.23,0.08,0.41,0.2,0.56,0.36
		l-0.18,0.35c-0.19-0.16-0.37-0.27-0.55-0.34c-0.17-0.07-0.35-0.11-0.54-0.11c-0.4,0-0.71,0.14-0.94,0.41
		c-0.23,0.27-0.34,0.65-0.34,1.12c0,0.47,0.11,0.83,0.34,1.1c0.23,0.26,0.54,0.4,0.94,0.4c0.19,0,0.37-0.04,0.54-0.11
		c0.17-0.07,0.36-0.18,0.55-0.33l0.18,0.34c-0.16,0.15-0.35,0.27-0.58,0.36c-0.23,0.09-0.47,0.13-0.71,0.13
		C216.86,43.22,216.56,43.15,216.3,42.99z"/>
	<path d="M219,41.28v0.02c0,0.49,0.11,0.87,0.34,1.13c0.23,0.26,0.56,0.39,0.99,0.39c0.44,0,0.84-0.15,1.21-0.45l0.18,0.35
		c-0.16,0.15-0.37,0.27-0.62,0.36c-0.25,0.09-0.51,0.13-0.77,0.13c-0.56,0-1-0.17-1.32-0.5s-0.48-0.8-0.48-1.39
		c0-0.38,0.07-0.71,0.22-1c0.14-0.29,0.34-0.51,0.6-0.67c0.26-0.16,0.56-0.24,0.89-0.24c0.48,0,0.86,0.16,1.13,0.47
		c0.27,0.31,0.41,0.75,0.41,1.3v0.09H219z M219.42,40.09c-0.21,0.2-0.34,0.49-0.4,0.85h2.33c-0.03-0.38-0.14-0.66-0.33-0.86
		c-0.19-0.2-0.45-0.3-0.78-0.3C219.9,39.78,219.63,39.88,219.42,40.09z"/>
</g>
</svg>
