<?xml version="1.0" encoding="utf-8"?>
<!-- Generator: Adobe Illustrator 22.1.0, SVG Export Plug-In . SVG Version: 6.00 Build 0)  -->
<svg version="1.1" id="Capa_1" xmlns="http://www.w3.org/2000/svg" xmlns:xlink="http://www.w3.org/1999/xlink" x="0px" y="0px"
	 viewBox="0 0 48 48" style="enable-background:new 0 0 48 48;" xml:space="preserve">
<style type="text/css">
	.st0{fill:#A4B0C0;}
	.st1{fill:#D0D7DF;}
	.st2{fill:#ADC1BF;}
	.st3{fill:#768BA0;}
	.st4{fill:#F1F2F2;}
</style>
<g id="_31-Shopping_Cart">
	<rect x="39" y="7" class="st0" width="8" height="6"/>
	<rect x="39" y="20" class="st0" width="8" height="7"/>
	<rect x="30" y="13" class="st0" width="9" height="7"/>
	<rect x="30" y="27" class="st0" width="9" height="5"/>
	<rect x="22" y="27" class="st1" width="8" height="5"/>
	<rect x="22" y="20" class="st0" width="8" height="7"/>
	<rect x="13" y="27" class="st0" width="9" height="5"/>
	<rect x="22" y="7" class="st0" width="8" height="6"/>
	<rect x="13" y="13" class="st0" width="9" height="7"/>
	<rect x="39" y="13" class="st1" width="8" height="7"/>
	<rect x="39" y="27" class="st1" width="8" height="5"/>
	<rect x="30" y="20" class="st1" width="9" height="7"/>
	<rect x="30" y="7" class="st1" width="9" height="6"/>
	<rect x="22" y="13" class="st1" width="8" height="7"/>
	<rect x="13" y="20" class="st1" width="9" height="7"/>
	<rect x="13" y="7" class="st1" width="9" height="6"/>
	<circle class="st1" cx="36" cy="44" r="3"/>
	<circle class="st1" cx="18" cy="44" r="3"/>
	<rect x="1" y="3" class="st1" width="7" height="3"/>
	<circle class="st2" cx="34" cy="14" r="13"/>
	<path class="st3" d="M46,34.6L45.6,35H9V3c0-0.6-0.4-1-1-1H1C0.4,2,0,2.4,0,3v3c0,0.6,0.4,1,1,1h6v28c0,1.1,0.8,2,1.9,2
		c0,0,0.1,0,0.1,0h3v4c0,0.6,0.4,1,1,1h1.6c-0.4,0.6-0.6,1.3-0.6,2c0,2.2,1.8,4,4,4s4-1.8,4-4c0-0.7-0.2-1.4-0.6-2h11.1
		c-0.4,0.6-0.6,1.3-0.6,2c0,2.2,1.8,4,4,4s4-1.8,4-4c0-0.7-0.2-1.4-0.6-2h1.1l1.7,1.7c0.2,0.2,0.4,0.3,0.7,0.3h4v-2h-3.6l-1.7-1.7
		C41.5,40.1,41.3,40,41,40H14v-3h32c0.3,0,0.5-0.1,0.7-0.3l1-1c0.2-0.2,0.3-0.4,0.3-0.7v-9h-2V34.6z M7,5H2V4h5V5z M20,44
		c0,1.1-0.9,2-2,2s-2-0.9-2-2s0.9-2,2-2S20,42.9,20,44z M38,44c0,1.1-0.9,2-2,2s-2-0.9-2-2s0.9-2,2-2S38,42.9,38,44z"/>
	<path class="st3" d="M14,28h7v4h2v-4h2v-2H14v-5h4v-2h-4v-5h4v-2h-4V8h5V6h-6c-0.6,0-1,0.4-1,1v25h2V28z"/>
	<polygon class="st4" points="33,21 35,21 35,15 41,15 41,13 35,13 35,7 33,7 33,13 27,13 27,15 33,15 	"/>
</g>
</svg>
