<svg xmlns="http://www.w3.org/2000/svg" viewBox="0 0 48 48"><title>7-Remove from cart</title><g id="_7-Remove_from_cart" data-name="7-Remove from cart"><rect x="39" y="7" width="8" height="6" style="fill:#d0d7df"/><rect x="39" y="20" width="8" height="7" style="fill:#d0d7df"/><rect x="30" y="13" width="9" height="7" style="fill:#d0d7df"/><rect x="30" y="27" width="9" height="5" style="fill:#d0d7df"/><rect x="22" y="27" width="8" height="5" style="fill:#a4b0c0"/><rect x="22" y="20" width="8" height="7" style="fill:#d0d7df"/><rect x="13" y="27" width="9" height="5" style="fill:#d0d7df"/><rect x="22" y="7" width="8" height="6" style="fill:#d0d7df"/><rect x="13" y="13" width="9" height="7" style="fill:#d0d7df"/><rect x="39" y="13" width="8" height="7" style="fill:#a4b0c0"/><rect x="39" y="27" width="8" height="5" style="fill:#a4b0c0"/><rect x="30" y="20" width="9" height="7" style="fill:#a4b0c0"/><rect x="30" y="7" width="9" height="6" style="fill:#a4b0c0"/><rect x="22" y="13" width="8" height="7" style="fill:#a4b0c0"/><rect x="13" y="20" width="9" height="7" style="fill:#a4b0c0"/><rect x="13" y="7" width="9" height="6" style="fill:#a4b0c0"/><circle cx="36" cy="44" r="3" style="fill:#d0d7df"/><circle cx="18" cy="44" r="3" style="fill:#d0d7df"/><rect x="1" y="3" width="7" height="3" style="fill:#d0d7df"/><circle cx="34" cy="14" r="13" style="fill:#fa5c66"/><path d="M46,34.586,45.586,35H9V3A1,1,0,0,0,8,2H1A1,1,0,0,0,0,3V6A1,1,0,0,0,1,7H7V35a1.959,1.959,0,0,0,2,2h3v4a1,1,0,0,0,1,1h1.556A3.959,3.959,0,0,0,14,44a4,4,0,0,0,8,0,3.959,3.959,0,0,0-.556-2H32.556A3.959,3.959,0,0,0,32,44a4,4,0,0,0,8,0,3.959,3.959,0,0,0-.556-2h1.142l1.707,1.707A1,1,0,0,0,43,44h4V42H43.414l-1.707-1.707A1,1,0,0,0,41,40H14V37H46a1,1,0,0,0,.707-.293l1-1A1,1,0,0,0,48,35V26H46ZM7,5H2V4H7ZM36,42a2,2,0,1,1-2,2A2,2,0,0,1,36,42ZM18,42a2,2,0,1,1-2,2A2,2,0,0,1,18,42Z" style="fill:#768ba0"/><path d="M14,28h7v4h2V28h2V26H14V21h4V19H14V14h4V12H14V8h5V6H13a1,1,0,0,0-1,1V32h2Z" style="fill:#768ba0"/><rect x="27" y="13" width="14" height="2" style="fill:#f1f2f2"/></g></svg>