<!-- Generator: Adobe Illustrator 22.1.0, SVG Export Plug-In  -->
<svg version="1.1"
	 xmlns="http://www.w3.org/2000/svg" xmlns:xlink="http://www.w3.org/1999/xlink" xmlns:a="http://ns.adobe.com/AdobeSVGViewerExtensions/3.0/"
	 x="0px" y="0px" width="512px" height="450px" viewBox="0 0 512 450" style="enable-background:new 0 0 512 450;"
	 xml:space="preserve">
<style type="text/css">
	.st0{fill:#FFFFFF;}
</style>
<defs>
</defs>
<g>
	<path class="st0" d="M165,300L165,300C165,300,165,300,165,300l272,0c6.7,0,12.6-4.4,14.4-10.9l60-210c1.3-4.5,0.4-9.4-2.4-13.2
		c-2.8-3.8-7.3-6-12-6H130.4l-10.7-48.3C118.1,4.9,112,0,105,0H15C6.7,0,0,6.7,0,15s6.7,15,15,15h78c1.9,8.6,51.3,230.9,54.2,243.7
		c-15.9,6.9-27.1,22.8-27.1,41.3c0,24.8,20.2,45,45,45h272c8.3,0,15-6.7,15-15s-6.7-15-15-15H165c-8.3,0-15-6.7-15-15
		C150,306.7,156.7,300,165,300z M477.1,90l-51.4,180H177L137,90H477.1z"/>
	<path class="st0" d="M150,405c0,24.8,20.2,45,45,45s45-20.2,45-45s-20.2-45-45-45S150,380.2,150,405z M195,390c8.3,0,15,6.7,15,15
		s-6.7,15-15,15s-15-6.7-15-15S186.7,390,195,390z"/>
	<path class="st0" d="M362,405c0,24.8,20.2,45,45,45s45-20.2,45-45s-20.2-45-45-45S362,380.2,362,405z M407,390c8.3,0,15,6.7,15,15
		s-6.7,15-15,15s-15-6.7-15-15S398.7,390,407,390z"/>
</g>
</svg>
