<!-- Generator: Adobe Illustrator 22.1.0, SVG Export Plug-In  -->
<svg version="1.1"
	 xmlns="http://www.w3.org/2000/svg" xmlns:xlink="http://www.w3.org/1999/xlink" xmlns:a="http://ns.adobe.com/AdobeSVGViewerExtensions/3.0/"
	 x="0px" y="0px" width="512px" height="303px" viewBox="0 0 512 303" style="enable-background:new 0 0 512 303;"
	 xml:space="preserve">
<defs>
</defs>
<path d="M365,3c44.4,10.3,61.4,36.3,82.7,72H365V3z M105.6,78c8.7,0,15,4.2,15,14c0,8.3-6.7,15-15,15H15c-8.3,0-15,6.7-15,15
	c0,8.3,6.7,15,15,15h135c8.4,0,15.1,6.7,15.1,15c0,8.3-6.7,15-15,15H15c-8.3,0-15,6.7-15,15s6.7,15,15,15h33v45c0,8.3,6.7,15,15,15
	h30.2c5.4,26.5,28.8,46,56.3,46s51-19.5,56.3-46h152.3c5.4,26.5,28.8,46,56.3,46s51-19.5,56.3-46H497c8.3,0,15-6.7,15-15v-90
	c0-44-46.4-46.9-46.5-47H350c-8.3,0-15-6.7-15-15V0H63c-8.3,0-15,6.7-15,15v33H30c-8.3,0-15,6.7-15,15s6.7,15,15,15H105.6z
	 M433.9,226.1c10.7,10.7,10.7,28.2,0,38.9c-17.3,17.3-46.9,5-46.9-19.4C387,221.1,416.7,208.8,433.9,226.1z M168.9,226.1
	c10.7,10.7,10.7,28.2,0,38.9c-17.3,17.3-46.9,5-46.9-19.4C122,221.1,151.7,208.8,168.9,226.1z"/>
</svg>
