<?xml version="1.0"?>
<svg xmlns="http://www.w3.org/2000/svg" xmlns:xlink="http://www.w3.org/1999/xlink" xmlns:svgjs="http://svgjs.com/svgjs" version="1.1" width="512" height="512" x="0" y="0" viewBox="0 0 571.638 571.637" style="enable-background:new 0 0 512 512" xml:space="preserve" class=""><g transform="matrix(0.9500000000000002,0,0,0.9499999999999997,14.2909400582314,14.290943527221714)">
<g xmlns="http://www.w3.org/2000/svg">
	<g id="Layer_2_29_">
		<path d="M567.677,320.254H517.34c-2.782,0-6.282,2.782-7.822,5.097l-14.554,22.28c-1.539,2.314-2.859,6.675-3.385,9.4    c-2.458,12.718-15.1,45.46-79.943,45.46c-80.717,0-73.555-119.799-71.021-145.952c0.269-2.764-0.803-6.78-2.467-8.999    l-54.364-74.368c-1.683-2.228-5.288-5.919-8.07-5.919h-30.208c-2.783,0-6.445,0.134-8.176-2.037l-33.985-42.161    c-1.73-2.171-5.393-3.615-8.176-3.615h-40.268c-2.783,0-7.774,3.519-7.774,6.302v10.069c0,2.783,0.488,2.754-2.295,2.754h-30.208    c-2.783,0-6.79-0.268-8.97-2.008l-42.477-33.545c-2.161-1.731-6.177-2.697-8.951-2.697H3.881c-2.783,0-4.437,2.305-3.71,4.982    L27.73,208.268c0.727,2.687-0.927,6.799-3.71,6.799H3.881c-2.783,0-3.443-0.277-1.473,1.683l33.153,32.216    c1.97,1.97,4.714,4.552,6.149,6.942l55.224,92.048c1.434,2.382,4.609,3.309,7.095,2.065l11.131-5.564    c2.486-1.243,3.643-4.332,2.582-6.904L51.11,173.805c-1.062-2.572,0.334-6.55,3.117-6.55h10.069c2.783,0,6.283,3.777,7.822,6.082    l95.089,143.59c1.54,2.314,3.414,6.828,4.179,9.506l17.365,61.027c0.765,2.678,3.232,6.254,5.508,7.842l92.431,64.757    c2.277,1.597,6.332,2.458,9.056,1.884l89.544-18.704c2.725-0.574,6.865,0.134,9.246,1.559l42.975,25.685    c2.391,1.425,5.919,0.995,7.879-0.976l13.015-12.421c1.97-1.951,5.814-2.955,8.597-2.955h30.208c2.783,0,4.026-2.61,2.783-5.097    l-5.565-11.428c-1.243-2.485-0.66-6.244,1.31-8.214l63.352-63.428c1.97-1.97,4.103-5.785,4.781-8.482l7.621-31.432    C572.162,323.362,570.46,320.254,567.677,320.254z" fill="#ffffff" data-original="#000000" style="" class=""/>
	</g>
</g>
<g xmlns="http://www.w3.org/2000/svg">
</g>
<g xmlns="http://www.w3.org/2000/svg">
</g>
<g xmlns="http://www.w3.org/2000/svg">
</g>
<g xmlns="http://www.w3.org/2000/svg">
</g>
<g xmlns="http://www.w3.org/2000/svg">
</g>
<g xmlns="http://www.w3.org/2000/svg">
</g>
<g xmlns="http://www.w3.org/2000/svg">
</g>
<g xmlns="http://www.w3.org/2000/svg">
</g>
<g xmlns="http://www.w3.org/2000/svg">
</g>
<g xmlns="http://www.w3.org/2000/svg">
</g>
<g xmlns="http://www.w3.org/2000/svg">
</g>
<g xmlns="http://www.w3.org/2000/svg">
</g>
<g xmlns="http://www.w3.org/2000/svg">
</g>
<g xmlns="http://www.w3.org/2000/svg">
</g>
<g xmlns="http://www.w3.org/2000/svg">
</g>
</g></svg>
