<!-- Generator: Adobe Illustrator 22.1.0, SVG Export Plug-In  -->
<svg version="1.1"
	 xmlns="http://www.w3.org/2000/svg" xmlns:xlink="http://www.w3.org/1999/xlink" xmlns:a="http://ns.adobe.com/AdobeSVGViewerExtensions/3.0/"
	 x="0px" y="0px" width="512px" height="512px" viewBox="0 0 512 512" style="enable-background:new 0 0 512 512;"
	 xml:space="preserve">
<defs>
</defs>
<g>
	<path d="M219.2,72L254,89.7V0h-83v89.7L205.7,72C209.8,69.9,214.8,69.8,219.2,72z"/>
	<path d="M425,181.2V15c0-8.3-6.7-15-15-15H284v114.1c0,10.8-11.5,19.1-22.7,12.8l-48.8-24.8l-49.8,25.3c-10,5.1-21.7-2.3-21.7-13.4
		L141,0H15C6.7,0,0,6.7,0,15v395c0,8.3,6.7,15,15,15h166.2c-18.5-45.6-18.3-96.3,0.5-141.8C221.1,188.2,329.7,142.6,425,181.2z"/>
	<path d="M465.9,243.6c-28.5-28.5-67.8-46.1-111.2-46.1s-82.7,17.6-111.2,46.1s-46.1,67.8-46.1,111.2s17.6,82.7,46.1,111.2
		S311.3,512,354.8,512s82.7-17.6,111.2-46.1S512,398.2,512,354.8S494.4,272,465.9,243.6z M418,404c-10.5,10.5-25,17-41,17h-70
		c-8.3,0-15-6.7-15-15s6.7-15,15-15h70c15.4,0,28-12.6,28-28c0-8.3-2.6-15.1-8.2-20.8c-5.1-5.1-12.1-8.2-19.8-8.2h-41.8l8.9,8.9
		c5.9,5.8,5.9,15.3,0.1,21.2c-5.8,5.9-15.3,5.9-21.2,0.1l-34.5-34.4c-5.9-5.8-5.9-15.3-0.1-21.2l34.4-34.5
		c5.8-5.9,15.3-5.9,21.2-0.1c5.9,5.8,5.9,15.3,0.1,21.2l-8.8,8.8H377c32,0,58,26,58,58C435,378.7,429,392.9,418,404z"/>
</g>
</svg>
