<!-- Generator: Adobe Illustrator 22.1.0, SVG Export Plug-In  -->
<svg version="1.1"
	 xmlns="http://www.w3.org/2000/svg" xmlns:xlink="http://www.w3.org/1999/xlink" xmlns:a="http://ns.adobe.com/AdobeSVGViewerExtensions/3.0/"
	 x="0px" y="0px" width="511px" height="489.7px" viewBox="0 0 511 489.7" style="enable-background:new 0 0 511 489.7;"
	 xml:space="preserve">
<style type="text/css">
	.st0{fill:#FFFFFF;}
</style>
<defs>
</defs>
<g>
	<path class="st0" d="M486.3,166.4l-120.2-10.9L94.6,427l-6.7,29.5c-2.4,10.6,1.7,21.7,10.6,28c4.7,3.4,10.3,5.2,15.9,5.2
		c4.8,0,9.6-1.3,13.9-3.9l127.2-76l127.2,76c9.3,5.6,21,5.1,29.9-1.3c8.8-6.4,13-17.4,10.6-28l-32.9-144.8l111.5-97.8
		c8.2-7.2,11.3-18.5,8-28.9C506.3,174.7,497.1,167.4,486.3,166.4z"/>
	<path class="st0" d="M9.3,213.9l111.5,97.8L107,372.1l228-228L280.5,16.5c-4.3-10-14.1-16.5-25-16.5c-10.9,0-20.7,6.5-25,16.5
		L172.2,153L24.7,166.4c-10.8,1-20,8.3-23.4,18.7C-2,195.4,1.1,206.7,9.3,213.9z"/>
</g>
</svg>
