<!-- Generator: Adobe Illustrator 24.2.3, SVG Export Plug-In  -->
<svg version="1.1" xmlns="http://www.w3.org/2000/svg" xmlns:xlink="http://www.w3.org/1999/xlink" x="0px" y="0px" width="336px"
	 height="243px" viewBox="0 0 336 243" style="overflow:visible;enable-background:new 0 0 336 243;" xml:space="preserve">
<style type="text/css">
	.st0{fill:#CED6E0;}
	.st1{fill:#DFE4EA;}
	.st2{fill:#F1F2F6;}
</style>
<defs>
</defs>
<g>
	<circle class="st0" cx="320" cy="16" r="16"/>
</g>
<rect y="15" class="st0" width="320" height="228"/>
<rect x="37" y="52" class="st1" width="147" height="26"/>
<rect x="37" y="87" class="st1" width="136" height="9"/>
<rect x="37" y="101" class="st1" width="115" height="9"/>
<rect x="37" y="115" class="st1" width="131" height="9"/>
<rect x="37" y="129" class="st1" width="74" height="9"/>
<path class="st1" d="M167,218H54c-9.39,0-17-7.61-17-17v0c0-9.39,7.61-17,17-17h113c9.39,0,17,7.61,17,17v0
	C184,210.39,176.39,218,167,218z"/>
<g>
	<rect x="68" y="197" class="st2" width="84" height="8"/>
</g>
<polygon class="st2" points="322.83,11.83 320.5,14.17 318.17,11.83 315.83,14.17 318.17,16.5 315.83,18.83 318.17,21.17 
	320.5,18.83 322.83,21.17 325.17,18.83 322.83,16.5 325.17,14.17 "/>
</svg>
